<svg xmlns="http://www.w3.org/2000/svg" version="1.1" xmlns:xlink="http://www.w3.org/1999/xlink" xmlns:svgjs="http://svgjs.dev/svgjs" width="1920" height="1080" preserveAspectRatio="none" viewBox="0 0 1920 1080"><g mask="url(&quot;#SvgjsMask1037&quot;)" fill="none"><rect width="1920" height="1080" x="0" y="0" fill="rgba(24, 106, 59, 1)"></rect><path d="M0,820.647C162.813,833.192,331.847,818.221,472.225,734.797C614.994,649.952,718.035,510.342,780.85,356.602C842.136,206.603,861.171,38.897,820.658,-117.993C782.317,-266.47,666.838,-375.009,562.829,-487.694C461.995,-596.94,368.47,-727.576,224.345,-764.047C81.752,-800.131,-62.989,-734.531,-199.871,-680.696C-326.471,-630.905,-431.676,-551.607,-536.446,-464.833C-661.293,-361.43,-814.465,-277.251,-870.601,-125.173C-931.208,39.019,-937.123,236.212,-851.58,388.904C-767.414,539.138,-581.255,587.587,-427.663,665.457C-289.607,735.45,-154.328,808.755,0,820.647" fill="#13552f"></path><path d="M1920 1709.647C2039.519 1707.376 2142.172 1642.557 2253.422 1598.815 2394.52 1543.337 2598.122 1556.363 2660.871 1418.345 2723.65 1280.262 2576.427 1136.539 2529.116 992.422 2491.169 876.828 2481.337 753.9200000000001 2410.324 655.1320000000001 2334.874 550.17 2232.304 470.31399999999996 2114.908 416.203 1983.486 355.62699999999995 1837.858 286.60699999999997 1698.973 327.25300000000004 1560.068 367.905 1462.938 497.82399999999996 1396.558 626.435 1338.109 739.6800000000001 1377.871 873.514 1352.568 998.4159999999999 1325.1019999999999 1133.992 1194.1480000000001 1259.848 1241.94 1389.66 1289.315 1518.338 1454.328 1553.12 1578.335 1611.641 1687.699 1663.251 1799.092 1711.944 1920 1709.647" fill="#1d7f47"></path></g><defs><mask id="SvgjsMask1037"><rect width="1920" height="1080" fill="#ffffff"></rect></mask></defs></svg>